<svg width="76" height="18" viewBox="0 0 76 18" fill="none" xmlns="http://www.w3.org/2000/svg">
  <g clip-path="url(#clip0_8709_8961)">
    <path fill-rule="evenodd" clip-rule="evenodd"
      d="M12.3769 17.0758C11.3229 17.5579 10.1077 17.7988 8.73281 17.7988C7.4795 17.7988 6.32237 17.5923 5.26003 17.1791C4.19824 16.7656 3.2774 16.1802 2.4986 15.422C1.71926 14.6641 1.10767 13.7572 0.664931 12.7004C0.221367 11.644 0 10.4806 0 9.20952C0 7.90854 0.225513 6.72912 0.676262 5.67266C1.12701 4.6162 1.74938 3.71703 2.54448 2.97432C3.33847 2.23161 4.27065 1.66143 5.34045 1.26321C6.4097 0.865276 7.56379 0.666168 8.80135 0.666168C9.94743 0.666168 11.0739 0.869153 12.1821 1.27457C13.2898 1.68054 14.188 2.27371 14.875 3.05463L12.2167 5.71863C11.8496 5.21352 11.3688 4.83857 10.7727 4.59321C10.1768 4.34869 9.56522 4.22601 8.93926 4.22601C8.25139 4.22601 7.621 4.35229 7.04838 4.60484C6.4752 4.8574 5.98217 5.20577 5.56983 5.64967C5.15694 6.09414 4.83636 6.61835 4.60698 7.22288C4.37815 7.82795 4.26318 8.49008 4.26318 9.20952C4.26318 9.94448 4.37815 10.6185 4.60698 11.2308C4.83636 11.8431 5.15308 12.3676 5.55795 12.804C5.96282 13.2401 6.44811 13.5813 7.01383 13.8258C7.57899 14.0709 8.1975 14.1936 8.87016 14.1936C9.64951 14.1936 10.3291 14.0404 10.9097 13.7342C11.4906 13.4279 11.9566 13.0302 12.3084 12.5395L15.0358 15.1119C14.3173 15.939 13.431 16.5934 12.3769 17.0758Z"
      fill="white"></path>
    <path fill-rule="evenodd" clip-rule="evenodd"
      d="M23.7915 11.5982C23.7915 11.2307 23.7301 10.871 23.608 10.519C23.4855 10.1668 23.31 9.8566 23.0809 9.58854C22.8518 9.32075 22.5686 9.10254 22.2328 8.93389C21.8967 8.76552 21.5068 8.68134 21.0638 8.68134C20.6205 8.68134 20.2308 8.76552 19.8947 8.93389C19.5587 9.10254 19.2798 9.32075 19.0582 9.58854C18.8365 9.8566 18.6688 10.1668 18.5541 10.519C18.4397 10.871 18.3822 11.2307 18.3822 11.5982C18.3822 11.9656 18.4397 12.3254 18.5541 12.6773C18.6688 13.0301 18.8407 13.3475 19.0698 13.6305C19.2989 13.9141 19.5816 14.14 19.9177 14.3081C20.2537 14.4771 20.6434 14.5607 21.0867 14.5607C21.5297 14.5607 21.9197 14.4771 22.2557 14.3081C22.5915 14.14 22.8748 13.9141 23.1039 13.6305C23.333 13.3475 23.5049 13.0301 23.6196 12.6773C23.734 12.3254 23.7915 11.9656 23.7915 11.5982ZM27.4129 11.5982C27.4129 12.5322 27.2444 13.378 26.9083 14.1359C26.5722 14.8938 26.1137 15.5371 25.5334 16.0649C24.9525 16.5933 24.2804 17.0034 23.5162 17.2936C22.7521 17.5844 21.9349 17.7304 21.0638 17.7304C20.2079 17.7304 19.3942 17.5844 18.6229 17.2936C17.851 17.0034 17.1789 16.5933 16.6057 16.0649C16.0328 15.5371 15.5779 14.8938 15.2419 14.1359C14.9058 13.378 14.7378 12.5322 14.7378 11.5982C14.7378 10.6644 14.9058 9.82226 15.2419 9.0718C15.5779 8.32161 16.0328 7.68635 16.6057 7.16546C17.1789 6.64512 17.851 6.24691 18.6229 5.97137C19.3942 5.69583 20.2079 5.55792 21.0638 5.55792C21.9349 5.55792 22.7521 5.69583 23.5162 5.97137C24.2804 6.24691 24.9525 6.64512 25.5334 7.16546C26.1137 7.68635 26.5722 8.32161 26.9083 9.0718C27.2444 9.82226 27.4129 10.6644 27.4129 11.5982Z"
      fill="white"></path>
    <mask id="mask0_8709_8961" maskUnits="userSpaceOnUse" x="0" y="0" width="76" height="18"
      style="mask-type: alpha;">
      <path d="M0 17.799H75.8419V9.15527e-05H0V17.799Z" fill="white"></path>
    </mask>
    <g mask="url(#mask0_8709_8961)">
      <path fill-rule="evenodd" clip-rule="evenodd"
        d="M28.9253 17.3629H32.7532V0.00012207H28.9253V17.3629Z" fill="white"></path>
      <path fill-rule="evenodd" clip-rule="evenodd"
        d="M43.2729 11.5982C43.2729 11.2307 43.2116 10.871 43.0894 10.519C42.967 10.1668 42.7915 9.8566 42.5624 9.58854C42.3333 9.32075 42.05 9.10254 41.7142 8.93389C41.3782 8.76552 40.9882 8.68134 40.5452 8.68134C40.1019 8.68134 39.7122 8.76552 39.3762 8.93389C39.0401 9.10254 38.7613 9.32075 38.5396 9.58854C38.318 9.8566 38.1502 10.1668 38.0355 10.519C37.9211 10.871 37.8636 11.2307 37.8636 11.5982C37.8636 11.9656 37.9211 12.3254 38.0355 12.6773C38.1502 13.0301 38.3221 13.3475 38.5512 13.6305C38.7803 13.9141 39.0631 14.14 39.3991 14.3081C39.7352 14.4771 40.1249 14.5607 40.5681 14.5607C41.0112 14.5607 41.4011 14.4771 41.7372 14.3081C42.0729 14.14 42.3562 13.9141 42.5853 13.6305C42.8144 13.3475 42.9863 13.0301 43.101 12.6773C43.2154 12.3254 43.2729 11.9656 43.2729 11.5982ZM46.8944 11.5982C46.8944 12.5322 46.7258 13.378 46.3897 14.1359C46.0537 14.8938 45.5952 15.5371 45.0148 16.0649C44.4339 16.5933 43.7618 17.0034 42.9977 17.2936C42.2335 17.5844 41.4163 17.7304 40.5452 17.7304C39.6893 17.7304 38.8757 17.5844 38.1044 17.2936C37.3325 17.0034 36.6604 16.5933 36.0872 16.0649C35.5143 15.5371 35.0594 14.8938 34.7233 14.1359C34.3873 13.378 34.2192 12.5322 34.2192 11.5982C34.2192 10.6644 34.3873 9.82226 34.7233 9.0718C35.0594 8.32161 35.5143 7.68635 36.0872 7.16546C36.6604 6.64512 37.3325 6.24691 38.1044 5.97137C38.8757 5.69583 39.6893 5.55792 40.5452 5.55792C41.4163 5.55792 42.2335 5.69583 42.9977 5.97137C43.7618 6.24691 44.4339 6.64512 45.0148 7.16546C45.5952 7.68635 46.0537 8.32161 46.3897 9.0718C46.7258 9.82226 46.8944 10.6644 46.8944 11.5982Z"
        fill="white"></path>
      <path fill-rule="evenodd" clip-rule="evenodd"
        d="M55.0767 9.3014C54.7711 9.01091 54.4121 8.76555 53.9998 8.56645C53.5869 8.36761 53.1516 8.26792 52.6931 8.26792C52.3416 8.26792 52.0171 8.33688 51.7192 8.47478C51.421 8.61241 51.272 8.85001 51.272 9.18675C51.272 9.50798 51.4359 9.73783 51.7651 9.87574C52.0931 10.0134 52.6243 10.1668 53.3578 10.3349C53.7853 10.4268 54.2175 10.5572 54.6528 10.7256C55.0883 10.8943 55.4816 11.1161 55.8331 11.3913C56.1847 11.6672 56.4671 12.0042 56.6813 12.4018C56.8949 12.8003 57.0022 13.2747 57.0022 13.8258C57.0022 14.5455 56.8565 15.1544 56.5666 15.6518C56.2762 16.1494 55.8981 16.5515 55.4321 16.8572C54.9659 17.1641 54.4425 17.3856 53.8618 17.5235C53.2812 17.6612 52.7006 17.7301 52.1202 17.7301C51.188 17.7301 50.2749 17.5808 49.3812 17.2823C48.4871 16.9838 47.7423 16.5438 47.1465 15.9617L49.2551 13.7341C49.5909 14.1016 50.0038 14.4079 50.4927 14.6527C50.9819 14.8977 51.5011 15.0199 52.0514 15.0199C52.3568 15.0199 52.6588 14.9476 52.9568 14.8019C53.2547 14.6565 53.4036 14.4001 53.4036 14.0326C53.4036 13.6804 53.2201 13.4204 52.8537 13.252C52.4869 13.0833 51.914 12.9072 51.1344 12.7233C50.737 12.6314 50.3399 12.5093 49.9427 12.3561C49.545 12.2033 49.1899 11.9964 48.8768 11.7358C48.5637 11.4758 48.3075 11.1543 48.1091 10.7716C47.9104 10.3889 47.8111 9.92946 47.8111 9.39334C47.8111 8.70435 47.956 8.11866 48.2467 7.63626C48.5366 7.15414 48.9111 6.76008 49.3698 6.45352C49.828 6.14752 50.336 5.92183 50.8937 5.77617C51.4517 5.63078 52.0055 5.55795 52.5558 5.55795C53.4114 5.55795 54.2477 5.69198 55.0654 5.95977C55.8826 6.22783 56.5741 6.62992 57.1398 7.16549L55.0767 9.3014Z"
        fill="white"></path>
      <path fill-rule="evenodd" clip-rule="evenodd"
        d="M66.7431 11.5982C66.7431 11.2307 66.6818 10.871 66.5596 10.519C66.4372 10.1668 66.2617 9.8566 66.0326 9.58854C65.8035 9.32075 65.5202 9.10254 65.1844 8.93389C64.8484 8.76552 64.4584 8.68134 64.0154 8.68134C63.5721 8.68134 63.1825 8.76552 62.8464 8.93389C62.5103 9.10254 62.2315 9.32075 62.0098 9.58854C61.7882 9.8566 61.6205 10.1668 61.5058 10.519C61.3913 10.871 61.3339 11.2307 61.3339 11.5982C61.3339 11.9656 61.3913 12.3254 61.5058 12.6773C61.6205 13.0301 61.7923 13.3475 62.0215 13.6305C62.2506 13.9141 62.5333 14.14 62.8693 14.3081C63.2054 14.4771 63.5951 14.5607 64.0384 14.5607C64.4814 14.5607 64.8713 14.4771 65.2074 14.3081C65.5432 14.14 65.8264 13.9141 66.0555 13.6305C66.2846 13.3475 66.4565 13.0301 66.5712 12.6773C66.6856 12.3254 66.7431 11.9656 66.7431 11.5982ZM70.3646 11.5982C70.3646 12.5322 70.196 13.378 69.86 14.1359C69.5239 14.8938 69.0654 15.5371 68.4851 16.0649C67.9041 16.5933 67.232 17.0034 66.4679 17.2936C65.7037 17.5844 64.8865 17.7304 64.0154 17.7304C63.1595 17.7304 62.3459 17.5844 61.5746 17.2936C60.8027 17.0034 60.1306 16.5933 59.5574 16.0649C58.9845 15.5371 58.5296 14.8938 58.1935 14.1359C57.8575 13.378 57.6895 12.5322 57.6895 11.5982C57.6895 10.6644 57.8575 9.82226 58.1935 9.0718C58.5296 8.32161 58.9845 7.68635 59.5574 7.16546C60.1306 6.64512 60.8027 6.24691 61.5746 5.97137C62.3459 5.69583 63.1595 5.55792 64.0154 5.55792C64.8865 5.55792 65.7037 5.69583 66.4679 5.97137C67.232 6.24691 67.9041 6.64512 68.4851 7.16546C69.0654 7.68635 69.5239 8.32161 69.86 9.0718C70.196 9.82226 70.3646 10.6644 70.3646 11.5982Z"
        fill="white"></path>
      <path fill-rule="evenodd" clip-rule="evenodd"
        d="M75.8418 15.3418C75.8418 15.9848 75.6163 16.5209 75.1659 16.9493C74.7148 17.3777 74.1765 17.5923 73.55 17.5923C73.2291 17.5923 72.927 17.535 72.6446 17.4204C72.3616 17.3052 72.1134 17.1484 71.8995 16.9493C71.6856 16.7505 71.5176 16.517 71.3954 16.2487C71.273 15.9812 71.2119 15.6863 71.2119 15.3645C71.2119 15.0585 71.273 14.7674 71.3954 14.4922C71.5176 14.2164 71.6856 13.9749 71.8995 13.7683C72.1134 13.5617 72.3616 13.3975 72.6446 13.2745C72.927 13.1524 73.2291 13.0909 73.55 13.0909C74.1765 13.0909 74.7148 13.3053 75.1659 13.734C75.6163 14.1626 75.8418 14.6988 75.8418 15.3418Z"
        fill="#FFB200"></path>
    </g>
  </g>
  <defs>
    <clipPath id="clip0_8709_8961">
      <rect width="76" height="18" fill="white"></rect>
    </clipPath>
  </defs>
</svg>